{
  "accessors": [
    {
      "bufferView": 2,
      "componentType": 5126,
      "count": 1073,
      "max": [
        154.35868835449219,
        120.89413452148438,
        155.27095031738281
      ],
      "min": [
        -110.16131591796875,
        -120.89413452148438,
        -1.2585154763655737e-05
      ],
      "type": "VEC3"
    },
    {
      "bufferView": 2,
      "byteOffset": 12876,
      "componentType": 5126,
      "count": 1073,
      "max": [
        1,
        1,
        1
      ],
      "min": [
        -1,
        -1,
        -1
      ],
      "type": "VEC3"
    },
    {
      "bufferView": 3,
      "componentType": 5126,
      "count": 1073,
      "max": [
        1,
        1,
        1,
        1
      ],
      "min": [
        -1,
        -1,
        -0.00012209505075588822,
        1
      ],
      "type": "VEC4"
    },
    {
      "bufferView": 1,
      "componentType": 5126,
      "count": 1073,
      "max": [
        0.99949997663497925,
        0.98993426561355591
      ],
      "min": [
        0.00050000002374872565,
        0.00050000002374872565
      ],
      "type": "VEC2"
    },
    {
      "bufferView": 0,
      "componentType": 5125,
      "count": 2358,
      "max": [
        1072
      ],
      "min": [
        0
      ],
      "type": "SCALAR"
    },
    {
      "bufferView": 2,
      "byteOffset": 25752,
      "componentType": 5126,
      "count": 88,
      "max": [
        154.35868835449219,
        122.0472412109375,
        0
      ],
      "min": [
        -108.26773071289062,
        -120.89411926269531,
        -15.748031616210938
      ],
      "type": "VEC3"
    },
    {
      "bufferView": 2,
      "byteOffset": 26808,
      "componentType": 5126,
      "count": 88,
      "max": [
        1,
        0.99998271465301514,
        1
      ],
      "min": [
        -0.99997657537460327,
        -1,
        -1
      ],
      "type": "VEC3"
    },
    {
      "bufferView": 3,
      "byteOffset": 17168,
      "componentType": 5126,
      "count": 88,
      "max": [
        1,
        1,
        0.28071457147598267,
        1
      ],
      "min": [
        -0.99998265504837036,
        -0.9999765157699585,
        -0.33333373069763184,
        1
      ],
      "type": "VEC4"
    },
    {
      "bufferView": 1,
      "byteOffset": 8584,
      "componentType": 5126,
      "count": 88,
      "max": [
        0.99000000953674316,
        0.79060614109039307
      ],
      "min": [
        0.0099999997764825821,
        0.0099999997764825821
      ],
      "type": "VEC2"
    },
    {
      "bufferView": 0,
      "byteOffset": 9432,
      "componentType": 5125,
      "count": 180,
      "max": [
        87
      ],
      "min": [
        0
      ],
      "type": "SCALAR"
    },
    {
      "bufferView": 2,
      "byteOffset": 27864,
      "componentType": 5126,
      "count": 233,
      "max": [
        158.5672607421875,
        125.03793334960938,
        100.52965545654297
      ],
      "min": [
        -111.25840759277344,
        -125.03792572021484,
        88.543708801269531
      ],
      "type": "VEC3"
    },
    {
      "bufferView": 2,
      "byteOffset": 30660,
      "componentType": 5126,
      "count": 233,
      "max": [
        0.99980831146240234,
        0.99990779161453247,
        0.99996590614318848
      ],
      "min": [
        -0.9998059868812561,
        -0.99995231628417969,
        -1
      ],
      "type": "VEC3"
    },
    {
      "bufferView": 3,
      "byteOffset": 18576,
      "componentType": 5126,
      "count": 233,
      "max": [
        1,
        1,
        0.019788971170783043,
        1
      ],
      "min": [
        -1,
        -1,
        -0.083996102213859558,
        -1
      ],
      "type": "VEC4"
    },
    {
      "bufferView": 1,
      "byteOffset": 9288,
      "componentType": 5126,
      "count": 233,
      "max": [
        0.98383456468582153,
        0.99000000953674316
      ],
      "min": [
        0.0099140256643295288,
        0.0099999997764825821
      ],
      "type": "VEC2"
    },
    {
      "bufferView": 0,
      "byteOffset": 10152,
      "componentType": 5125,
      "count": 537,
      "max": [
        232
      ],
      "min": [
        0
      ],
      "type": "SCALAR"
    },
    {
      "bufferView": 2,
      "byteOffset": 33456,
      "componentType": 5126,
      "count": 1612,
      "max": [
        162.18862915039062,
        128.15203857421875,
        52.282489776611328
      ],
      "min": [
        -103.38374328613281,
        -126.84970092773438,
        -5.6576013565063477
      ],
      "type": "VEC3"
    },
    {
      "bufferView": 2,
      "byteOffset": 52800,
      "componentType": 5126,
      "count": 1612,
      "max": [
        0.99135923385620117,
        1,
        1
      ],
      "min": [
        -0.97706210613250732,
        -1,
        -1
      ],
      "type": "VEC3"
    },
    {
      "bufferView": 3,
      "byteOffset": 22304,
      "componentType": 5126,
      "count": 1612,
      "max": [
        0.99939388036727905,
        1,
        0.44604632258415222,
        1
      ],
      "min": [
        -1,
        -1,
        -0.44606831669807434,
        1
      ],
      "type": "VEC4"
    },
    {
      "bufferView": 1,
      "byteOffset": 11152,
      "componentType": 5126,
      "count": 1612,
      "max": [
        0.99000000953674316,
        0.97905921936035156
      ],
      "min": [
        0.0099999997764825821,
        0.0099999997764825821
      ],
      "type": "VEC2"
    },
    {
      "bufferView": 0,
      "byteOffset": 12300,
      "componentType": 5125,
      "count": 4614,
      "max": [
        1611
      ],
      "min": [
        0
      ],
      "type": "SCALAR"
    },
    {
      "bufferView": 2,
      "byteOffset": 72144,
      "componentType": 5126,
      "count": 2428,
      "max": [
        153.51060485839844,
        120.04605102539062,
        85.376609802246094
      ],
      "min": [
        -106.26653289794922,
        -120.04605865478516,
        -6.9470115704461932e-06
      ],
      "type": "VEC3"
    },
    {
      "bufferView": 2,
      "byteOffset": 101280,
      "componentType": 5126,
      "count": 2428,
      "max": [
        1,
        1,
        1
      ],
      "min": [
        -1,
        -1,
        -1
      ],
      "type": "VEC3"
    },
    {
      "bufferView": 3,
      "byteOffset": 48096,
      "componentType": 5126,
      "count": 2428,
      "max": [
        1,
        1,
        1,
        1
      ],
      "min": [
        -1,
        -1,
        -0.038973189890384674,
        1
      ],
      "type": "VEC4"
    },
    {
      "bufferView": 1,
      "byteOffset": 24048,
      "componentType": 5126,
      "count": 2428,
      "max": [
        0.99172675609588623,
        0.99950003623962402
      ],
      "min": [
        0.00050000002374872565,
        0.00050000002374872565
      ],
      "type": "VEC2"
    },
    {
      "bufferView": 0,
      "byteOffset": 30756,
      "componentType": 5125,
      "count": 3774,
      "max": [
        2427
      ],
      "min": [
        0
      ],
      "type": "SCALAR"
    }
  ],
  "asset": {
    "extras": {
      "author": "Yury Misiyuk (https://sketchfab.com/Tim0)",
      "license": "CC-BY-4.0 (http://creativecommons.org/licenses/by/4.0/)",
      "source": "https://sketchfab.com/3d-models/old-house-19a1121bab5a4aaaad4d973abe5b61cb",
      "title": "Old house"
    },
    "generator": "Sketchfab-7.84.0",
    "version": "2.0"
  },
  "bufferViews": [
    {
      "buffer": 0,
      "byteLength": 45852,
      "byteOffset": 0,
      "name": "floatBufferViews",
      "target": 34963
    },
    {
      "buffer": 0,
      "byteLength": 43472,
      "byteOffset": 45852,
      "byteStride": 8,
      "name": "floatBufferViews",
      "target": 34962
    },
    {
      "buffer": 0,
      "byteLength": 130416,
      "byteOffset": 89324,
      "byteStride": 12,
      "name": "floatBufferViews",
      "target": 34962
    },
    {
      "buffer": 0,
      "byteLength": 86944,
      "byteOffset": 219740,
      "byteStride": 16,
      "name": "floatBufferViews",
      "target": 34962
    }
  ],
  "buffers": [
    {
      "byteLength": 306684,
      "uri": "scene.bin"
    }
  ],
  "images": [
    {
      "uri": "textures/Material_25_baseColor.jpeg"
    },
    {
      "uri": "textures/Material_25_metallicRoughness.png"
    },
    {
      "uri": "textures/Material_25_normal.jpeg"
    },
    {
      "uri": "textures/Material_28_baseColor.jpeg"
    },
    {
      "uri": "textures/Material_28_metallicRoughness.png"
    },
    {
      "uri": "textures/Material_28_normal.jpeg"
    },
    {
      "uri": "textures/Material_26_baseColor.jpeg"
    },
    {
      "uri": "textures/Material_26_metallicRoughness.png"
    },
    {
      "uri": "textures/Material_26_normal.jpeg"
    },
    {
      "uri": "textures/Material_27_baseColor.jpeg"
    },
    {
      "uri": "textures/Material_27_metallicRoughness.png"
    },
    {
      "uri": "textures/Material_27_normal.jpeg"
    }
  ],
  "materials": [
    {
      "doubleSided": true,
      "name": "Material_25",
      "normalTexture": {
        "index": 2,
        "scale": 1,
        "texCoord": 0
      },
      "pbrMetallicRoughness": {
        "baseColorFactor": [
          1,
          1,
          1,
          1
        ],
        "baseColorTexture": {
          "index": 0,
          "texCoord": 0
        },
        "metallicFactor": 1,
        "metallicRoughnessTexture": {
          "index": 1,
          "texCoord": 0
        },
        "roughnessFactor": 1
      }
    },
    {
      "doubleSided": true,
      "name": "Material_28",
      "normalTexture": {
        "index": 5,
        "scale": 1,
        "texCoord": 0
      },
      "pbrMetallicRoughness": {
        "baseColorFactor": [
          1,
          1,
          1,
          1
        ],
        "baseColorTexture": {
          "index": 3,
          "texCoord": 0
        },
        "metallicFactor": 1,
        "metallicRoughnessTexture": {
          "index": 4,
          "texCoord": 0
        },
        "roughnessFactor": 1
      }
    },
    {
      "doubleSided": true,
      "name": "Material_26",
      "normalTexture": {
        "index": 8,
        "scale": 1,
        "texCoord": 0
      },
      "occlusionTexture": {
        "index": 7,
        "strength": 1,
        "texCoord": 0
      },
      "pbrMetallicRoughness": {
        "baseColorFactor": [
          1,
          1,
          1,
          1
        ],
        "baseColorTexture": {
          "index": 6,
          "texCoord": 0
        },
        "metallicFactor": 1,
        "metallicRoughnessTexture": {
          "index": 7,
          "texCoord": 0
        },
        "roughnessFactor": 0.90000000000000002
      }
    },
    {
      "doubleSided": true,
      "name": "Material_27",
      "normalTexture": {
        "index": 11,
        "scale": 1,
        "texCoord": 0
      },
      "occlusionTexture": {
        "index": 10,
        "strength": 1,
        "texCoord": 0
      },
      "pbrMetallicRoughness": {
        "baseColorFactor": [
          1,
          1,
          1,
          1
        ],
        "baseColorTexture": {
          "index": 9,
          "texCoord": 0
        },
        "metallicFactor": 1,
        "metallicRoughnessTexture": {
          "index": 10,
          "texCoord": 0
        },
        "roughnessFactor": 1
      }
    }
  ],
  "meshes": [
    {
      "name": "Box001_Material #25_0",
      "primitives": [
        {
          "attributes": {
            "NORMAL": 1,
            "POSITION": 0,
            "TANGENT": 2,
            "TEXCOORD_0": 3
          },
          "indices": 4,
          "material": 0,
          "mode": 4
        }
      ]
    },
    {
      "name": "Object_Material #28_0",
      "primitives": [
        {
          "attributes": {
            "NORMAL": 6,
            "POSITION": 5,
            "TANGENT": 7,
            "TEXCOORD_0": 8
          },
          "indices": 9,
          "material": 1,
          "mode": 4
        }
      ]
    },
    {
      "name": "Shape002_Material #25_0",
      "primitives": [
        {
          "attributes": {
            "NORMAL": 11,
            "POSITION": 10,
            "TANGENT": 12,
            "TEXCOORD_0": 13
          },
          "indices": 14,
          "material": 0,
          "mode": 4
        }
      ]
    },
    {
      "name": "Plane001_Material #26_0",
      "primitives": [
        {
          "attributes": {
            "NORMAL": 16,
            "POSITION": 15,
            "TANGENT": 17,
            "TEXCOORD_0": 18
          },
          "indices": 19,
          "material": 2,
          "mode": 4
        }
      ]
    },
    {
      "name": "Object001_Material #27_0",
      "primitives": [
        {
          "attributes": {
            "NORMAL": 21,
            "POSITION": 20,
            "TANGENT": 22,
            "TEXCOORD_0": 23
          },
          "indices": 24,
          "material": 3,
          "mode": 4
        }
      ]
    }
  ],
  "nodes": [
    {
      "children": [
        1
      ],
      "name": "RootNode (gltf orientation matrix)",
      "rotation": [
        -0.70710678118654746,
        -0,
        -0,
        0.70710678118654757
      ]
    },
    {
      "children": [
        2
      ],
      "name": "RootNode (model correction matrix)"
    },
    {
      "children": [
        3
      ],
      "matrix": [
        1,
        0,
        0,
        0,
        0,
        0,
        1,
        0,
        0,
        -1,
        0,
        0,
        0,
        0,
        0,
        1
      ],
      "name": "04be6ab01ecd4b1d99b94dca99152371.fbx"
    },
    {
      "children": [
        4,
        6,
        8,
        11,
        13
      ],
      "name": "RootNode"
    },
    {
      "children": [
        5
      ],
      "matrix": [
        2.5399999618530273,
        0,
        0,
        0,
        0,
        5.6399328803925005e-16,
        -2.5399999618530273,
        0,
        0,
        2.5399999618530273,
        5.6399328803925005e-16,
        0,
        141.23170471191406,
        7.8886090522101181e-31,
        -97.135818481445312,
        1
      ],
      "name": "Box001"
    },
    {
      "mesh": 0,
      "name": "Box001_Material #25_0"
    },
    {
      "children": [
        7
      ],
      "matrix": [
        2.5399999618530273,
        0,
        0,
        0,
        0,
        5.6399328803925005e-16,
        -2.5399999618530273,
        0,
        0,
        2.5399999618530273,
        5.6399328803925005e-16,
        0,
        141.23170471191406,
        7.8886090522101181e-31,
        -97.135818481445312,
        1
      ],
      "name": "Object"
    },
    {
      "mesh": 1,
      "name": "Object_Material #28_0"
    },
    {
      "children": [
        9
      ],
      "matrix": [
        2.5399999618530273,
        0,
        0,
        0,
        0,
        5.6399328803925005e-16,
        -2.5399999618530273,
        0,
        0,
        2.5399999618530273,
        5.6399328803925005e-16,
        0,
        201.231689453125,
        259.44586181640625,
        -97.13580322265625,
        1
      ],
      "name": "Shape002"
    },
    {
      "children": [
        10
      ],
      "matrix": [
        1,
        0,
        -0,
        0,
        0,
        1,
        0,
        0,
        0,
        0,
        1,
        0,
        -23.622039794921875,
        3.814697265625e-06,
        -96.358245849609375,
        1
      ],
      "name": ""
    },
    {
      "mesh": 2,
      "name": "Shape002_Material #25_0"
    },
    {
      "children": [
        12
      ],
      "matrix": [
        2.7196910381317139,
        0,
        0,
        0,
        0,
        5.9432072038053904e-16,
        -2.6765825748443604,
        0,
        0,
        2.5399999618530273,
        5.6399328803925005e-16,
        0,
        121.23169708251953,
        269.3486328125,
        -97.135826110839844,
        1
      ],
      "name": "Plane001"
    },
    {
      "mesh": 3,
      "name": "Plane001_Material #26_0"
    },
    {
      "children": [
        14
      ],
      "matrix": [
        2.5399999618530273,
        0,
        0,
        0,
        0,
        5.6399328803925005e-16,
        -2.5399999618530273,
        0,
        0,
        2.5399999618530273,
        5.6399328803925005e-16,
        0,
        141.23170471191406,
        7.8886090522101181e-31,
        -97.135818481445312,
        1
      ],
      "name": "Object001"
    },
    {
      "mesh": 4,
      "name": "Object001_Material #27_0"
    }
  ],
  "samplers": [
    {
      "magFilter": 9729,
      "minFilter": 9987,
      "wrapS": 10497,
      "wrapT": 10497
    }
  ],
  "scene": 0,
  "scenes": [
    {
      "name": "OSG_Scene",
      "nodes": [
        0
      ]
    }
  ],
  "textures": [
    {
      "sampler": 0,
      "source": 0
    },
    {
      "sampler": 0,
      "source": 1
    },
    {
      "sampler": 0,
      "source": 2
    },
    {
      "sampler": 0,
      "source": 3
    },
    {
      "sampler": 0,
      "source": 4
    },
    {
      "sampler": 0,
      "source": 5
    },
    {
      "sampler": 0,
      "source": 6
    },
    {
      "sampler": 0,
      "source": 7
    },
    {
      "sampler": 0,
      "source": 8
    },
    {
      "sampler": 0,
      "source": 9
    },
    {
      "sampler": 0,
      "source": 10
    },
    {
      "sampler": 0,
      "source": 11
    }
  ]
}

